<?xml version="1.0" encoding="UTF-8"?>
<!DOCTYPE svg PUBLIC "-//W3C//DTD SVG 1.1//EN" "http://www.w3.org/Graphics/SVG/1.1/DTD/svg11.dtd">
<!-- Creator: CorelDRAW 2021 (64-Bit Evaluation Version) -->
<svg xmlns="http://www.w3.org/2000/svg" xml:space="preserve" width="13.9894mm" height="17.8398mm" version="1.1" style="shape-rendering:geometricPrecision; text-rendering:geometricPrecision; image-rendering:optimizeQuality; fill-rule:evenodd; clip-rule:evenodd"
viewBox="0 0 22.63 28.86"
 xmlns:xlink="http://www.w3.org/1999/xlink"
 xmlns:xodm="http://www.corel.com/coreldraw/odm/2003">
 <defs>
  <style type="text/css">
   <![CDATA[
    .fil0 {fill:#FEFEFE;fill-rule:nonzero}
   ]]>
  </style>
 </defs>
 <g id="Layer_x0020_1">
  <metadata id="CorelCorpID_0Corel-Layer"/>
  <g id="_2370375716000">
   <path class="fil0" d="M11.32 2.04c-0.16,0 -0.29,-0.13 -0.29,-0.29l0 -1.45c0,-0.16 0.13,-0.29 0.29,-0.29 0.16,0 0.29,0.13 0.29,0.29l0 1.45c0,0.16 -0.13,0.29 -0.29,0.29z"/>
   <path class="fil0" d="M18.09 4.84c-0.08,0 -0.15,-0.03 -0.21,-0.09 -0.11,-0.11 -0.11,-0.3 0,-0.42l1.03 -1.03c0.11,-0.11 0.3,-0.11 0.42,0 0.11,0.11 0.11,0.3 0,0.42l-1.03 1.03c-0.06,0.06 -0.13,0.09 -0.21,0.09z"/>
   <path class="fil0" d="M3.52 19.41c-0.08,0 -0.15,-0.03 -0.21,-0.09 -0.11,-0.11 -0.11,-0.3 0,-0.42l1.03 -1.03c0.11,-0.11 0.3,-0.11 0.42,0 0.11,0.11 0.11,0.3 0,0.42l-1.03 1.03c-0.06,0.06 -0.13,0.09 -0.21,0.09z"/>
   <path class="fil0" d="M22.34 11.61l-1.45 0c-0.16,0 -0.29,-0.13 -0.29,-0.29 0,-0.16 0.13,-0.29 0.29,-0.29l1.45 0c0.16,0 0.29,0.13 0.29,0.29 0,0.16 -0.13,0.29 -0.29,0.29z"/>
   <path class="fil0" d="M1.74 11.61l-1.45 0c-0.16,0 -0.29,-0.13 -0.29,-0.29 0,-0.16 0.13,-0.29 0.29,-0.29l1.45 0c0.16,0 0.29,0.13 0.29,0.29 0,0.16 -0.13,0.29 -0.29,0.29z"/>
   <path class="fil0" d="M19.11 19.41c-0.08,0 -0.15,-0.03 -0.21,-0.09l-1.03 -1.03c-0.11,-0.11 -0.11,-0.3 0,-0.42 0.11,-0.11 0.3,-0.11 0.42,0l1.03 1.03c0.11,0.11 0.11,0.3 0,0.42 -0.06,0.06 -0.13,0.09 -0.21,0.09z"/>
   <path class="fil0" d="M4.55 4.84c-0.08,0 -0.15,-0.03 -0.21,-0.09l-1.03 -1.03c-0.11,-0.11 -0.11,-0.3 0,-0.42 0.11,-0.11 0.3,-0.11 0.42,0l1.03 1.03c0.11,0.11 0.11,0.3 0,0.42 -0.06,0.06 -0.13,0.09 -0.21,0.09z"/>
   <path class="fil0" d="M15.01 2.78c-0.04,0 -0.08,-0.01 -0.11,-0.02 -0.15,-0.06 -0.22,-0.23 -0.16,-0.38l0.56 -1.34c0.06,-0.15 0.24,-0.22 0.38,-0.16 0.15,0.06 0.22,0.23 0.16,0.38l-0.56 1.34c-0.05,0.11 -0.16,0.18 -0.27,0.18z"/>
   <path class="fil0" d="M20.18 7.98c-0.12,0 -0.23,-0.07 -0.27,-0.18 -0.06,-0.15 0.01,-0.32 0.16,-0.38l1.34 -0.55c0.15,-0.06 0.32,0.01 0.38,0.16 0.06,0.15 -0.01,0.32 -0.16,0.38l-1.34 0.55c-0.04,0.02 -0.07,0.02 -0.11,0.02z"/>
   <path class="fil0" d="M1.12 15.79c-0.12,0 -0.23,-0.07 -0.27,-0.18 -0.06,-0.15 0.01,-0.32 0.16,-0.38l1.34 -0.55c0.15,-0.06 0.32,0.01 0.38,0.16 0.06,0.15 -0.01,0.32 -0.16,0.38l-1.34 0.55c-0.04,0.01 -0.07,0.02 -0.11,0.02z"/>
   <path class="fil0" d="M21.49 15.87c-0.04,0 -0.08,-0.01 -0.11,-0.02l-1.34 -0.56c-0.15,-0.06 -0.22,-0.23 -0.16,-0.38 0.06,-0.15 0.24,-0.22 0.38,-0.16l1.34 0.56c0.15,0.06 0.22,0.23 0.16,0.38 -0.05,0.11 -0.16,0.18 -0.27,0.18z"/>
   <path class="fil0" d="M2.49 7.91c-0.04,0 -0.08,-0.01 -0.11,-0.02l-1.34 -0.56c-0.15,-0.06 -0.22,-0.23 -0.16,-0.38 0.06,-0.15 0.24,-0.22 0.38,-0.16l1.34 0.56c0.15,0.06 0.22,0.23 0.16,0.38 -0.05,0.11 -0.16,0.18 -0.27,0.18z"/>
   <path class="fil0" d="M7.69 2.75c-0.12,0 -0.23,-0.07 -0.27,-0.18l-0.55 -1.34c-0.06,-0.15 0.01,-0.32 0.16,-0.38 0.15,-0.06 0.32,0.01 0.38,0.16l0.55 1.34c0.06,0.15 -0.01,0.32 -0.16,0.38 -0.04,0.01 -0.07,0.02 -0.11,0.02z"/>
   <path class="fil0" d="M13.89 25.29l-4.96 0c-0.28,0 -0.51,-0.23 -0.51,-0.51l0 0c0,-0.28 0.23,-0.51 0.51,-0.51l4.96 0c0.28,0 0.51,0.23 0.51,0.51l0 0c0,0.28 -0.23,0.51 -0.51,0.51z"/>
   <path class="fil0" d="M13.89 26.88l-4.96 0c-0.28,0 -0.51,-0.23 -0.51,-0.51l0 0c0,-0.28 0.23,-0.51 0.51,-0.51l4.96 0c0.28,0 0.51,0.23 0.51,0.51l0 0c0,0.28 -0.23,0.51 -0.51,0.51z"/>
   <path class="fil0" d="M10.21 27.48c-0.12,0 -0.22,0.11 -0.19,0.23 0.12,0.65 0.69,1.15 1.38,1.15 0.69,0 1.26,-0.49 1.38,-1.15 0.02,-0.12 -0.07,-0.23 -0.19,-0.23l-2.38 0z"/>
   <path class="fil0" d="M11.37 4.61c-0.35,0 -0.71,0.03 -1.06,0.08 -3.18,0.51 -5.49,3.23 -5.49,6.46 0,2.46 0.97,3.97 2,5.56 0.99,1.54 2.02,3.14 2.21,5.63 0.01,0.18 0.17,0.32 0.35,0.32l3.98 0c0.18,0 0.33,-0.14 0.35,-0.32 0.19,-2.49 1.22,-4.09 2.21,-5.63 1.03,-1.59 2,-3.1 2,-5.56 0,-3.15 -2.24,-5.85 -5.33,-6.43 -0.4,-0.07 -0.81,-0.11 -1.21,-0.11zm1.99 19.03l-3.98 0c-0.69,0 -1.27,-0.54 -1.32,-1.23 -0.17,-2.25 -1.09,-3.67 -2.06,-5.18 -1.06,-1.64 -2.15,-3.34 -2.15,-6.09 0,-3.71 2.65,-6.83 6.31,-7.42 0.85,-0.14 1.76,-0.13 2.61,0.03 3.55,0.66 6.13,3.77 6.13,7.39 0,2.75 -1.09,4.45 -2.15,6.09 -0.97,1.51 -1.89,2.93 -2.06,5.18 -0.05,0.69 -0.63,1.23 -1.32,1.23z"/>
   <path class="fil0" d="M7.73 15.86c-0.15,0 -0.3,-0.07 -0.4,-0.2 -2.72,-3.73 -0.71,-7.24 -0.63,-7.38 0.14,-0.23 0.44,-0.31 0.67,-0.17 0.23,0.14 0.31,0.44 0.17,0.67 -0.08,0.13 -1.75,3.11 0.57,6.31 0.16,0.22 0.11,0.52 -0.11,0.68 -0.09,0.06 -0.19,0.09 -0.29,0.09z"/>
  </g>
 </g>
</svg>
