<?xml version="1.0" encoding="UTF-8"?>
<!DOCTYPE svg PUBLIC "-//W3C//DTD SVG 1.1//EN" "http://www.w3.org/Graphics/SVG/1.1/DTD/svg11.dtd">
<!-- Creator: CorelDRAW 2021 (64-Bit Evaluation Version) -->
<svg xmlns="http://www.w3.org/2000/svg" xml:space="preserve" width="11.985mm" height="16.9478mm" version="1.1" style="shape-rendering:geometricPrecision; text-rendering:geometricPrecision; image-rendering:optimizeQuality; fill-rule:evenodd; clip-rule:evenodd"
viewBox="0 0 17.77 25.13"
 xmlns:xlink="http://www.w3.org/1999/xlink"
 xmlns:xodm="http://www.corel.com/coreldraw/odm/2003">
 <defs>
  <style type="text/css">
   <![CDATA[
    .fil0 {fill:#FEFEFE}
   ]]>
  </style>
 </defs>
 <g id="Layer_x0020_1">
  <metadata id="CorelCorpID_0Corel-Layer"/>
  <g id="_2370373819488">
   <path class="fil0" d="M8.1 3.65c2.11,-0.55 3.8,0.95 4.19,2.57 0.5,2.03 -0.96,3.75 -2.52,4.14 -4.4,1.1 -6.18,-5.54 -1.68,-6.71zm0.06 -3.61c-1.66,0.18 -3.17,0.93 -4.24,2.01 -2.15,2.17 -2.38,5.07 -1.53,8.13 0.72,2.58 2.85,6.05 4.63,7.89 1.08,1.12 1.63,2.73 3.57,0.26 1.17,-1.49 1.46,-1.63 2.72,-3.59 1.07,-1.66 2.06,-3.68 2.45,-5.94 0.89,-5.11 -2.65,-9.31 -7.61,-8.77z"/>
   <path class="fil0" d="M4.99 16.52c-4.18,-0.1 -3.25,-0.25 -4.88,6.34 -0.72,2.89 2.2,2.21 5.01,2.21l11.39 -0.01c1.18,-0.13 1.44,-1.09 1.15,-2.27 -0.26,-1.02 -0.49,-2.01 -0.74,-3.03 -0.57,-2.32 -0.38,-3.24 -2.38,-3.24 -0.42,0 -1.48,-0.11 -1.79,0.08l-1.71 2.05c-0.51,0.52 -1.03,1.58 -2.16,1.57 -1.4,-0.01 -2.97,-2.71 -3.9,-3.69z"/>
  </g>
 </g>
</svg>
