<?xml version="1.0" encoding="UTF-8"?>
<!DOCTYPE svg PUBLIC "-//W3C//DTD SVG 1.1//EN" "http://www.w3.org/Graphics/SVG/1.1/DTD/svg11.dtd">
<!-- Creator: CorelDRAW 2021 (64-Bit Evaluation Version) -->
<svg xmlns="http://www.w3.org/2000/svg" xml:space="preserve" width="90mm" height="48.844mm" version="1.1" style="shape-rendering:geometricPrecision; text-rendering:geometricPrecision; image-rendering:optimizeQuality; fill-rule:evenodd; clip-rule:evenodd"
viewBox="0 0 4115.5 2233.53"
 xmlns:xlink="http://www.w3.org/1999/xlink"
 xmlns:xodm="http://www.corel.com/coreldraw/odm/2003">
 <defs>
  <style type="text/css">
   <![CDATA[
    .fil1 {fill:#FEFEFE;fill-rule:nonzero}
    .fil0 {fill:#CCEBBC;fill-rule:nonzero}
    .fil2 {fill:url(#id1)}
    .fil3 {fill:url(#id2)}
   ]]>
  </style>
    <clipPath id="id0">
     <path d="M1362.92 2159.3c-6.22,7.15 -7.95,15.86 -3.84,19.43 4.1,3.57 12.48,0.64 18.7,-6.53 6.23,-7.18 7.93,-15.88 3.85,-19.44 -4.12,-3.57 -12.48,-0.64 -18.71,6.55z"/>
    </clipPath>
  <linearGradient id="id1" gradientUnits="userSpaceOnUse" x1="3000.66" y1="844.78" x2="3424.44" y2="110.36">
   <stop offset="0" style="stop-opacity:1; stop-color:#187D58"/>
   <stop offset="1" style="stop-opacity:1; stop-color:#5ED636"/>
  </linearGradient>
  <linearGradient id="id2" gradientUnits="userSpaceOnUse" x1="2461.04" y1="811.27" x2="2336.17" y2="9.99">
   <stop offset="0" style="stop-opacity:1; stop-color:#0A7C59"/>
   <stop offset="0.431373" style="stop-opacity:1; stop-color:#34A948"/>
   <stop offset="1" style="stop-opacity:1; stop-color:#5ED636"/>
  </linearGradient>
 </defs>
 <g id="Layer_x0020_1">
  <metadata id="CorelCorpID_0Corel-Layer"/>
  <g id="_2368604698800">
   <g style="clip-path:url(#id0)">
    <image x="1356.84" y="2151.23" width="27.02" height="29.03" xlink:href="navbar-new_Images\navbar-new_ImgID1.png"/>
   </g>
   <path class="fil0" d="M1359.08 2178.73c4.1,3.57 12.48,0.64 18.7,-6.53 3.08,-3.55 5.05,-7.49 5.77,-10.97 0.42,4.22 -1.66,9.88 -5.96,14.83 -6.23,7.17 -14.6,10.1 -18.7,6.54 -2.09,-1.81 -2.66,-4.92 -1.93,-8.49 0.2,1.9 0.84,3.53 2.11,4.62z"/>
   <g>
    <image x="1266.41" y="2193.63" width="27.13" height="40.5" xlink:href="navbar-new_Images\navbar-new_ImgID2.png"/>
   </g>
   <path class="fil0" d="M1271.39 2231.1c3.74,0.66 7.69,-4.09 8.83,-10.6 0.57,-3.22 0.33,-6.27 -0.48,-8.62 1.77,2.37 2.55,6.49 1.76,10.99 -1.17,6.51 -5.11,11.27 -8.83,10.61 -1.9,-0.33 -3.35,-1.98 -4.2,-4.38 0.8,1.06 1.77,1.81 2.92,2z"/>
   <path class="fil1" d="M1000.91 1925.94c-33.58,-18.41 -61.75,-37.91 -87.74,-59.57 -55.25,-46.58 -96.41,-99.66 -134.32,-164.65 -37.92,-65 -66.08,-131.07 -95.33,-201.49 -1.08,-5.42 -4.33,-13 -7.58,-20.58l125.66 -311.98c32.49,-73.66 49.83,-134.32 120.24,-139.74l0 -7.58 -180.9 0 0 7.58c29.25,0 46.58,7.58 56.33,32.5 11.92,30.33 5.42,54.16 -16.25,105.07l-114.82 289.22c-21.67,-55.24 -42.25,-110.49 -62.83,-171.15 -27.08,-73.66 -54.17,-146.24 -87.75,-219.9 -33.58,-73.66 -68.24,-142.99 -114.82,-209.06 -5.42,-8.67 -9.75,-17.34 -17.34,-24.92 -5.41,-7.58 -9.75,-16.25 -17.33,-23.83 -7.58,-7.58 -11.92,-15.16 -19.5,-22.75 -7.58,-7.59 -11.92,-15.17 -19.49,-22.75 -13,-14.08 -27.08,-29.25 -41.16,-42.24 -16.25,-13 -29.25,-24.92 -45.5,-36.83 -61.75,-47.66 -129.99,-77.99 -204.73,-89.91 33.58,17.34 62.83,37.92 92.07,60.66 29.25,24.91 56.33,48.75 79.08,73.66 48.75,53.08 89.91,114.82 123.49,179.82 33.58,64.99 64.99,132.16 92.08,205.82 16.24,37.92 29.25,75.83 43.33,113.74l-94.24 235.06 -135.4 -344.48c-14.08,-37.91 6.49,-81.24 44.41,-84.49l1.08 0 0 -10.83 -281.64 0 0 10.83c57.41,0 85.58,19.5 114.82,76.91l15.16 36.83c34.67,83.41 76.91,192.82 111.58,281.65l61.74 157.07 39 0 30.33 -75.83c34.66,-84.5 87.74,-223.15 102.91,-255.65 8.67,24.91 18.41,49.83 27.08,76.91 27.08,73.66 55.24,145.15 88.82,218.82 33.58,73.66 70.41,144.07 118.07,209.07 7.59,7.58 10.83,16.25 18.42,24.91l9.75 10.83 9.75 11.92 20.58 21.67c7.58,9.75 15.16,16.24 21.66,20.58l10.83 10.83 10.83 9.75c4.33,3.25 7.59,5.41 11.92,9.75l11.91 7.58c18.42,14.08 34.67,24.92 49.83,32.5 3.25,3.25 8.67,4.33 13,7.58l13 5.42c8.66,5.41 17.33,8.67 26,11.92l27.08 9.75c8.67,3.25 18.41,4.33 27.08,7.58 37.92,7.58 72.58,11.92 110.49,8.67l0 -3.25c-34.66,-10.83 -68.24,-23.83 -100.74,-39z"/>
   <path class="fil1" d="M1331.16 1564.13c-9.75,-2.17 -19.5,-6.5 -28.17,-13 -9.75,-7.59 -20.58,-19.5 -31.41,-35.75 -9.75,-16.25 -19.5,-41.16 -35.75,-79.07 -20.58,-47.67 -42.25,-104 -65,-164.66l-69.32 -173.32 -30.33 -76.91 -39 0c-22.75,59.58 -45.5,115.91 -68.25,171.15 -37.91,95.32 -81.24,206.9 -110.49,276.23 -9.75,26 -20.58,42.25 -32.49,56.33 -10.83,16.25 -21.67,28.16 -32.5,35.75 -11.91,7.58 -24.91,10.83 -40.08,11.91l0 10.83 190.65 0 0 -10.83c-33.58,-3.25 -58.5,-5.42 -68.24,-27.08 -17.34,-37.91 0,-69.32 8.67,-92.08 3.25,-5.41 5.41,-9.75 6.5,-15.16 1.09,-4.33 2.17,-6.5 2.17,-6.5l228.57 0c0,0 1.08,2.17 2.16,6.5 1.08,6.5 3.26,11.92 6.5,17.34 9.75,19.49 14.08,36.82 14.08,51.99 0,21.67 -10.83,38.99 -31.42,50.91 -11.91,7.58 -32.49,11.92 -63.91,14.08l0 10.83 334.72 0 0 -10.83c-21.67,-3.25 -35.75,-4.33 -47.66,-8.67zm-436.55 -147.32l108.32 -272.98 107.24 272.98 -215.57 0z"/>
   <path class="fil1" d="M1626.3 1252.16c-67.16,-29.25 -133.24,-57.41 -133.24,-121.33 0,-51.99 44.41,-92.07 109.41,-96.41 8.66,0 15.16,0 18.41,1.08 33.58,3.26 57.42,15.17 82.33,45.5 30.33,34.66 40.08,78 58.5,147.32l9.75 0 -2.17 -204.73 -10.83 0c-6.5,21.66 -15.17,31.42 -26,29.25 -5.41,0 -10.83,-1.08 -17.33,-3.25l-24.92 -13c-21.66,-11.92 -42.24,-17.33 -62.83,-22.75 -9.75,-1.08 -19.5,-2.17 -31.42,-2.17 -108.32,0 -189.57,67.16 -189.57,166.82 0,103.99 89.91,145.16 164.66,179.82 68.24,31.42 127.82,59.58 127.82,119.16 0,52 -49.83,88.83 -119.16,92.08l-1.08 0c-43.33,0 -80.16,-16.25 -110.49,-48.75 -30.33,-34.67 -45.49,-80.16 -66.07,-150.57l-9.75 1.08 4.33 203.65 11.92 0c5.41,-19.5 14.08,-29.25 26,-29.25 5.42,0 10.83,1.08 16.25,3.25l26 13c5.42,3.25 10.83,5.41 18.41,8.67 29.25,13 62.83,21.66 98.58,21.66 115.9,0 197.15,-69.33 197.15,-166.82 0,-101.83 -82.32,-138.66 -164.65,-173.32z"/>
   <path class="fil1" d="M2114.85 1344.24l0 10.83c35.74,0 60.65,6.49 74.74,19.5 16.24,16.25 16.24,43.33 16.24,74.74l0 42.25c-13,55.24 -53.08,83.41 -109.4,83.41 -105.07,0 -168.99,-106.16 -168.99,-265.4 0,-165.74 65,-259.98 177.66,-268.65 43.33,0 82.32,5.42 111.57,40.08 30.33,34.66 54.16,86.66 72.58,157.07l9.75 -1.08 -1.09 -203.65 -10.83 0c-6.5,19.5 -15.16,29.25 -27.08,29.25 -5.42,0 -10.83,-1.08 -16.25,-4.33 -1.08,0 -2.17,0 -3.25,-1.08 -2.16,-1.09 -4.33,-2.17 -6.5,-4.33 -34.66,-26 -83.41,-41.16 -138.66,-41.16 -162.48,0 -282.73,124.57 -282.73,289.22 0,165.74 123.49,291.4 276.23,291.4 70.41,0 128.91,-27.08 155.99,-69.33l50.91 50.91 6.5 7.59c1.08,1.08 2.17,2.16 3.25,2.16l7.59 0 0 -102.91c0,-40.08 -3.25,-74.74 2.17,-88.83 5.41,-11.91 10.83,-21.66 20.58,-27.08 11.92,-5.42 26,-6.5 50.91,-9.75l0 -10.83 -271.89 0z"/>
   <path class="fil1" d="M2581.17 1038.76c10.83,-3.26 23.83,-5.42 40.08,-6.5l0 -10.83 -272.98 0 0 10.83c16.25,1.08 30.33,3.25 40.08,6.5 9.75,5.41 18.42,13 26,20.58 9.74,9.75 11.92,23.83 15.16,41.16 3.25,22.75 1.08,48.75 1.08,73.66l0 258.89c-3.25,48.75 6.5,74.75 -16.25,112.66 -5.42,11.91 -16.25,15.17 -26,18.41 -9.75,5.42 -23.83,7.59 -40.08,8.67l0 10.83 272.98 0 0 -10.83c-16.25,-1.08 -29.25,-3.25 -40.08,-8.67 -11.92,-3.25 -20.58,-9.75 -27.08,-18.41 -16.24,-24.91 -11.91,-68.24 -11.91,-124.57l0 -237.23c3.25,-79.08 -9.75,-124.57 39,-145.15z"/>
   <path class="fil1" d="M3153.64 1021.43l-45.5 0 -465.79 0 -4.33 0 -11.92 152.74 9.75 2.16c7.58,-25.99 14.08,-44.41 19.5,-54.16 46.57,-90.99 128.9,-85.58 179.82,-85.58l5.42 0 0 401.88c0,37.92 4.33,82.33 -14.08,107.24 -14.09,20.58 -44.42,27.08 -67.16,27.08l0 10.83 272.98 0 0 -10.83c-81.24,-3.25 -80.16,-53.08 -80.16,-136.48l0 -399.72 4.33 0c50.91,0 133.24,-5.42 179.82,85.58 5.41,9.75 11.91,28.17 19.5,54.16l9.75 -2.16 -11.92 -152.74z"/>
   <path class="fil1" d="M3641.61 1428.73l-19.5 53.08c-14.08,29.25 -31.42,47.67 -56.33,63.91 -14.08,7.58 -30.33,14.08 -48.75,17.33 -18.41,4.33 -42.24,4.33 -75.83,4.33l-68.24 0 0 -262.14 68.24 0c24.92,0 46.58,2.16 65,5.41 14.08,3.25 24.91,9.75 34.66,20.58 8.67,8.67 15.17,18.42 18.42,30.33 3.25,9.75 6.5,24.92 7.58,43.34l9.75 0 -1.08 -216.65 -9.75 0c-1.08,18.41 -3.25,32.5 -6.5,43.33 -4.33,11.92 -10.83,21.67 -18.42,29.24 -7.58,9.75 -18.41,16.25 -34.66,20.58 -13,3.26 -35.75,6.5 -65,6.5l-68.24 0 0 -253.48 61.75 0c31.41,0 57.41,1.08 75.82,3.25 17.34,4.33 33.59,10.83 47.67,19.5 23.83,14.08 42.25,34.66 56.33,62.83 6.5,11.91 13,30.33 19.5,54.16l9.75 -3.25 -11.92 -151.66 -179.82 0 -279.48 0 0 10.83c16.25,1.08 29.25,3.25 39,6.5 11.92,5.41 20.58,11.92 27.08,20.58 8.67,8.66 15.16,21.67 18.41,37.91 3.25,11.91 4.33,35.75 4.33,71.49l0 269.73c0,31.41 -3.25,55.24 -6.5,71.49 -3.25,16.25 -9.75,29.24 -18.41,37.91 -7.58,9.75 -16.25,15.17 -26,20.58 -10.83,3.25 -23.83,5.42 -40.08,6.5l0 10.83 467.96 0 13 -152.74 -9.75 -2.17z"/>
   <path class="fil1" d="M4105.75 1428.73c-7.59,24.91 -15.17,41.16 -20.58,53.08 -13,29.25 -30.33,47.67 -55.24,63.91 -14.08,7.58 -30.33,14.08 -48.75,17.33 -18.41,4.33 -43.33,4.33 -74.75,4.33l-58.5 0 0 -308.72c0,-131.07 -4.33,-186.32 14.08,-204.73 17.33,-17.33 40.08,-22.75 67.16,-23.83l0 -10.83 -272.98 0 0 10.83c92.07,5.41 80.16,61.74 80.16,140.82l0 412.71 147.32 0 218.82 0 13 -152.74 -9.75 -2.17z"/>
   <path class="fil1" d="M1257.03 1672.1c5.97,-1.79 13.13,-2.98 22.08,-3.58l0 -5.97 -150.37 0 0 5.97c8.95,0.59 16.7,1.78 22.08,3.58 5.37,2.99 10.15,7.16 14.32,11.34 5.37,5.37 6.56,13.12 8.35,22.68 1.79,12.53 0.59,26.85 0.59,40.57l0 142.62c-1.79,26.85 3.58,41.17 -8.95,62.06 -2.99,6.56 -8.95,8.35 -14.32,10.15 -5.37,2.98 -13.13,4.17 -22.08,4.77l0 5.97 150.37 0 0 -5.97c-8.95,-0.59 -16.11,-1.79 -22.08,-4.77 -6.56,-1.79 -11.33,-5.37 -14.92,-10.15 -8.95,-13.73 -6.56,-37.59 -6.56,-68.62l0 -130.69c1.79,-43.56 -5.37,-68.62 21.48,-79.96z"/>
   <path class="fil1" d="M1534.01 1661.36l0 5.97c9.54,0.59 16.71,2.39 21.48,4.18 5.37,2.98 10.74,6.56 14.93,10.74 4.77,5.97 8.35,13.13 10.14,20.88 1.79,6.57 2.39,18.5 2.39,35.21l0 38.2 0 108.6 -197.51 -222.58 -30.44 0 0 229.73c0,17.31 -1.19,29.24 -2.99,38.19 -1.78,8.35 -4.77,15.51 -10.14,20.88 -4.18,5.37 -9.55,8.35 -14.92,10.15 -5.37,2.98 -12.53,4.17 -21.48,4.77l0 5.97 108.6 0 0 -5.97c-8.95,-0.59 -16.7,-1.79 -22.08,-4.77 -5.97,-1.79 -10.74,-4.78 -14.92,-10.15 -4.78,-5.97 -8.35,-13.13 -10.15,-20.88l-1.19 -10.74c-0.59,-7.16 -0.59,-16.11 -0.59,-27.45l0 -158.13 214.22 238.09 13.72 0 0 -82.94c0,-47.74 -0.6,-105.62 -0.6,-151.57 0.6,-14.92 1.19,-26.85 2.99,-34.61 1.79,-7.75 5.37,-14.92 10.15,-20.88 4.17,-4.17 8.95,-7.76 14.92,-10.74 4.77,-1.79 11.93,-3.59 21.48,-4.18l0 -5.97 -108 0z"/>
   <path class="fil1" d="M1960.78 1728.79c-28.04,-41.17 -73.99,-67.43 -128.89,-67.43l-8.95 0 -154.55 0 0 5.97c8.95,0.59 16.7,2.39 22.08,4.18 5.37,2.39 10.15,5.97 14.32,10.74 5.37,5.37 8.35,12.53 10.14,20.88 1.79,10.15 2.99,23.28 2.99,39.39l0 148.59c0,14.92 -1.2,28.04 -2.99,39.38 -1.78,8.95 -5.36,16.11 -10.14,20.88 -4.17,5.37 -8.95,8.35 -14.32,11.34 -5.97,1.79 -13.13,2.99 -22.08,3.58l0 5.97 163.5 0c87.72,0 154.55,-67.43 154.55,-156.34 0,-33.41 -9.54,-62.65 -25.66,-87.12zm-181.4 234.51l0 -293.59 42.97 0c60.86,0 100.84,58.48 100.84,146.2 0,89.51 -39.98,147.39 -100.84,147.39l-42.97 0z"/>
   <path class="fil1" d="M2163.76 1657.18c-85.93,0 -150.97,68.62 -150.97,159.32 0,91.3 65.04,160.52 150.97,160.52 85.93,0 150.97,-69.22 150.97,-160.52 0,-90.7 -65.04,-159.32 -150.97,-159.32zm0 310.3c-53.11,0 -87.72,-59.67 -87.72,-150.97 0,-90.7 34.61,-150.37 87.72,-150.37 52.51,0 87.12,59.67 87.12,150.37 0,91.3 -34.6,150.97 -87.12,150.97z"/>
   <path class="fil1" d="M2569.65 1661.36l0 5.97c9.54,0.59 16.71,2.39 21.48,4.18 5.37,2.98 10.74,6.56 14.92,10.74 4.77,5.97 8.35,13.13 10.14,20.88 1.79,6.57 2.39,18.5 2.39,35.21l0 38.2 0 108.6 -197.52 -222.58 -30.43 0 0 229.73c0,17.31 -1.19,29.24 -2.99,38.19 -1.79,8.35 -4.77,15.51 -10.14,20.88 -4.18,5.37 -9.55,8.35 -14.93,10.15 -5.36,2.98 -12.53,4.17 -21.48,4.77l0 5.97 108.6 0 0 -5.97c-8.95,-0.59 -16.71,-1.79 -22.08,-4.77 -5.97,-1.79 -10.74,-4.78 -14.92,-10.15 -4.78,-5.97 -8.35,-13.13 -10.15,-20.88l-1.19 -10.74c-0.6,-7.16 -0.6,-16.11 -0.6,-27.45l0 -158.13 214.22 238.09 13.73 0 0 -82.94c0,-47.74 -0.6,-105.62 -0.6,-151.57 0.6,-14.92 1.19,-26.85 2.99,-34.61 1.79,-7.75 5.37,-14.92 10.14,-20.88 4.18,-4.17 8.95,-7.76 14.92,-10.74 4.77,-1.79 11.94,-3.59 21.48,-4.18l0 -5.97 -108 0z"/>
   <path class="fil1" d="M3114.98 2016.95c-8.75,5 -16.6,8.04 -25.66,11.93 -15.98,6.85 -33.42,11.56 -51.91,13.14 -8.92,0.76 -17.3,0.55 -25.65,0 -8.93,-0.62 -17.37,-0.47 -26.27,-2.4 -18.52,-4 -35.7,-9.47 -52.52,-14.32 -38.56,-11.06 -83.9,-30.48 -121.53,-38.05l0 -168.38 38.2 0c14.92,0 26.25,1.19 35.21,2.99 7.76,1.78 14.32,5.97 19.7,11.34 4.16,4.78 7.75,9.56 9.53,16.11 1.8,5.39 3.58,13.74 4.19,23.89l5.37 0 -0.59 -118.76 -5.39 0c-0.59,10.15 -1.78,17.89 -3.58,23.87 -1.78,5.37 -4.78,10.74 -10.14,16.12 -3.57,4.17 -9.55,8.36 -18.5,11.33 -7.76,1.79 -20.29,3.59 -36.4,3.59l-37.6 0 0 -139.65 34.62 0c17.31,0 31.03,0 41.17,1.79 10.15,2.37 18.5,5.37 26.26,10.73 13.13,7.77 23.28,19.11 31.03,34.62 3.59,6.57 7.17,16.71 10.75,29.85l5.37 -1.79 -6.56 -83.55 -98.47 0 -154.56 0 0 5.97c8.94,0.59 16.1,1.79 21.49,3.59 6.57,2.96 11.32,6.56 14.92,11.32 4.76,5.39 8.09,12.03 10.15,20.9 1.53,6.61 2.38,19.71 2.38,39.39l0 164.21c0,16.1 -1.1,29.28 -2.99,39.39 -1.66,8.97 -5.34,17.93 -10.15,23.28 -5.33,5.98 -10.02,9.78 -13.13,11.33 -4.05,2.01 -7.83,3.75 -11.93,4.78 -7.85,1.96 -15.29,5.39 -22.67,10.14 -11.13,7.17 -19.11,15.53 -24.47,23.89 8.94,-5.39 17.83,-9.77 25.65,-12.54 8.9,-3.18 17.34,-5.18 26.27,-5.98 17.32,-1.59 35.32,0.85 52.51,5.98 16.82,5 33.61,11.49 51.93,18.5 17.48,6.67 84.05,28.85 102.44,35.07 18.57,6.28 38.2,10.75 57.87,13.13 19.68,2.39 40.56,1.49 60.28,-2.98 19.63,-4.45 38.98,-12.93 55.51,-24.48 9.09,-6.32 15.96,-12.1 23.26,-19.08 7.6,-7.3 13.13,-16.13 19.7,-23.87 -8.94,5.37 -17.18,9.24 -25.07,13.71z"/>
   <path class="fil1" d="M3093.73 1789.65c-36.99,-16.11 -73.39,-31.63 -73.39,-66.83 0,-28.64 24.46,-50.72 60.26,-53.11 4.77,0 8.35,0 10.14,0.59 18.5,1.79 31.63,8.35 45.35,25.07 16.71,19.09 22.08,42.96 32.22,81.15l5.37 0 -1.19 -112.78 -5.97 0c-3.58,11.93 -8.35,17.31 -14.32,16.11 -2.99,0 -5.97,-0.6 -9.55,-1.79l-13.72 -7.16c-11.94,-6.57 -23.28,-9.55 -34.61,-12.53 -5.37,-0.6 -10.74,-1.19 -17.31,-1.19 -59.67,0 -104.42,36.99 -104.42,91.89 0,57.28 49.53,79.96 90.7,99.06 37.59,17.3 70.41,32.82 70.41,65.64 0,28.64 -27.45,48.93 -65.64,50.72l-0.59 0c-23.87,0 -44.16,-8.95 -60.87,-26.86 -16.71,-19.09 -25.06,-44.15 -36.4,-82.94l-5.37 0.59 2.38 112.19 6.57 0c2.99,-10.75 7.76,-16.11 14.32,-16.11 2.99,0 5.97,0.59 8.95,1.79l14.31 7.16c2.99,1.79 5.97,2.99 10.15,4.78 16.11,7.16 34.61,11.93 54.3,11.93 63.85,0 108.6,-38.19 108.6,-91.89 0,-56.1 -45.35,-76.38 -90.7,-95.48z"/>
   <path class="fil1" d="M3339.09 1672.1c5.97,-1.79 13.13,-2.98 22.08,-3.58l0 -5.97 -150.37 0 0 5.97c8.95,0.59 16.71,1.78 22.08,3.58 5.37,2.99 10.15,7.16 14.32,11.34 5.37,5.37 6.57,13.12 8.35,22.68 1.79,12.53 0.59,26.85 0.59,40.57l0 142.62c-1.79,26.85 3.59,41.17 -8.95,62.06 -2.99,6.56 -8.95,8.35 -14.32,10.15 -5.37,2.98 -13.13,4.17 -22.08,4.77l0 5.97 150.37 0 0 -5.97c-8.95,-0.59 -16.11,-1.79 -22.08,-4.77 -6.57,-1.79 -11.34,-5.37 -14.92,-10.15 -8.95,-13.73 -6.57,-37.59 -6.57,-68.62l0 -130.69c1.79,-43.56 -5.37,-68.62 21.48,-79.96z"/>
   <path class="fil1" d="M3708.57 1961.51c-5.37,-1.2 -10.74,-3.59 -15.52,-7.17 -5.37,-4.17 -11.34,-10.74 -17.3,-19.69 -5.37,-8.95 -10.74,-22.67 -19.69,-43.56 -11.34,-26.26 -23.27,-57.29 -35.8,-90.7l-38.19 -95.48 -16.71 -42.36 -21.48 0c-12.53,32.82 -25.06,63.85 -37.59,94.28 -20.89,52.51 -44.75,113.98 -60.87,152.16 -5.37,14.32 -11.34,23.28 -17.9,31.03 -5.97,8.95 -11.93,15.52 -17.9,19.69 -6.57,4.17 -13.72,5.97 -22.08,6.56l0 5.97 105.02 0 0 -5.97c-18.5,-1.79 -32.22,-2.98 -37.59,-14.92 -9.55,-20.88 0,-38.19 4.77,-50.72 1.79,-2.98 2.98,-5.37 3.59,-8.35 0.59,-2.39 1.19,-3.58 1.19,-3.58l125.91 0c0,0 0.6,1.19 1.19,3.58 0.59,3.58 1.79,6.56 3.58,9.55 5.37,10.74 7.76,20.29 7.76,28.64 0,11.93 -5.96,21.48 -17.3,28.04 -6.56,4.18 -17.9,6.57 -35.21,7.76l0 5.97 184.38 0 0 -5.97c-11.93,-1.79 -19.69,-2.39 -26.25,-4.77zm-240.48 -81.16l59.67 -150.37 59.08 150.37 -118.75 0z"/>
   <path class="fil1" d="M1214.02 233.05c-18.26,-14.59 -36.3,-26.06 -55.98,-35.29 -19.22,-9 -41.27,-13.99 -62.05,-18.25 -20.58,-4.21 -42.59,-6.53 -63.28,-7.29 -42.55,-1.63 -83.88,1.9 -125.33,7.29 -42.49,5.54 -81.66,12.95 -120.47,21.91 -40.27,9.26 -78.78,21.98 -116.83,31.63 -38.63,9.79 -76.8,17.13 -114.38,21.9 -19.63,2.5 -37.73,3.64 -55.98,3.64 -9.72,0 -19.48,-2.44 -27.99,-3.64 -8.49,-1.2 -18.26,-2.46 -26.76,-6.08 -8.5,-3.64 -16.91,-7.54 -25.54,-12.17 -7.19,-3.88 -14.55,-9.84 -23.13,-18.25 -13.29,-13.05 -25.56,-32.67 -35.29,-52.34 0,3.86 0.96,3.91 1.22,5.08 4.58,20.93 10.82,40.68 21.9,59.01 5.92,9.81 11.87,19.97 20.68,29.4 8.19,8.81 17.41,15.57 25.55,22.1 10.09,8.07 19.61,11.93 30.43,17.04 9.82,4.62 20.88,8.04 31.63,12.18 20.86,8 41.36,9.73 64.49,9.73 38.95,0 75.46,-3.66 113.17,-9.73l0 478.69c0,42.55 5.63,93.04 -14.61,120.46 -17.47,23.7 -48.67,30.42 -76.66,30.42l0 12.17 306.65 0 0 -12.17c-88.83,-3.66 -88.83,-59.63 -88.83,-153.33l0 -500.59c3.66,1.22 4.92,0.27 6.08,0 40.22,-9.62 78.99,-21.57 116.83,-32.24 41.23,-11.61 80.22,-20.54 115.6,-26.17 19.37,-3.07 38.95,-3.64 57.2,-3.64 19.46,0 39.04,0.86 57.19,4.87 37.78,8.32 83.97,34.86 114.38,64.47 -13.39,-18.45 -35.29,-47.05 -49.89,-60.64l0 -0.2z"/>
   <path class="fil1" d="M1431.82 778.67l-21.9 59.62c-15.82,32.86 -35.29,53.54 -63.27,71.79 -15.82,8.52 -34.07,15.81 -54.75,19.47 -20.68,4.87 -47.45,4.87 -85.17,4.87l-76.66 0 0 -294.46 76.66 0c27.99,0 52.32,2.44 73,6.09 15.82,3.65 27.99,10.95 38.93,23.12 9.74,9.73 17.04,20.68 20.69,34.07 3.65,10.95 7.3,27.99 8.51,48.67l10.95 0 -1.22 -243.35 -10.95 0c-1.22,20.68 -3.65,36.5 -7.3,48.67 -4.87,13.38 -12.17,24.33 -20.69,32.85 -8.51,10.95 -20.68,18.25 -38.93,23.12 -14.6,3.65 -40.15,7.3 -73,7.3l-76.66 0 0 -284.72 69.36 0c35.29,0 64.49,1.22 85.18,3.65 19.47,4.87 37.72,12.17 53.53,21.9 26.77,15.82 47.45,38.94 63.27,70.57 7.3,13.39 14.6,34.07 21.9,60.84l10.95 -3.65 -13.38 -170.34 -201.98 0 -313.93 0 0 12.16c18.25,1.22 32.86,3.65 43.81,7.3 13.38,6.08 23.12,13.38 30.42,23.12 9.74,9.74 17.04,24.34 20.68,42.59 3.65,13.39 4.87,40.16 4.87,80.31l0 302.97c0,35.29 -3.65,62.06 -7.3,80.3 -3.65,18.25 -10.95,32.86 -20.69,42.59 -8.51,10.95 -18.25,17.03 -29.2,23.12 -12.16,3.65 -26.77,6.09 -45.02,7.3l0 12.17 525.63 0 14.61 -171.56 -10.95 -2.44z"/>
   <path class="fil1" d="M2082.82 406.35c1.22,-18.25 7.3,-32.86 17.03,-42.59 7.3,-9.74 17.03,-17.03 30.42,-23.12 10.95,-3.65 25.55,-6.09 43.8,-7.3l0 -12.16 -305.4 0 0 12.16c18.25,1.22 32.85,3.65 43.8,7.3 23.12,9.74 41.37,27.99 45.02,60.84l0 1.22 0 220.23 -272.55 0 0 -124.11c0,-42.59 -1.22,-81.52 0,-99.77 3.65,-35.29 20.68,-48.67 43.8,-58.4 12.17,-3.65 26.77,-6.09 45.02,-7.3l0 -12.16 -306.62 0 0 12.16c18.25,1.22 34.07,3.65 45.02,7.3 10.95,6.09 20.69,12.17 29.2,23.12 23.12,27.99 18.25,82.74 18.25,131.41l0 287.15c0,64.49 9.74,126.54 -47.46,148.44 -10.95,6.08 -26.77,8.52 -45.02,9.74l0 12.17 306.62 0 0 -12.17c-18.25,-1.22 -32.85,-3.65 -45.02,-9.74 -10.95,-3.65 -20.68,-12.16 -30.42,-20.68 -18.25,-23.12 -13.38,-71.79 -13.38,-135.06l0 -132.62 272.55 0 0 141.14c0,58.4 4.87,105.86 -14.6,126.54 -9.74,8.52 -17.03,17.03 -30.42,20.68 -10.95,6.08 -25.55,8.52 -45.02,9.74l0 12.17 306.62 0 0 -12.17c-18.25,-1.22 -32.86,-3.65 -43.8,-9.74 -13.38,-3.65 -21.9,-12.16 -30.42,-20.68 -18.25,-19.47 -17.03,-71.79 -17.03,-135.06l0 -368.67z"/>
   <path class="fil2" d="M2667.96 511.24c0,0 134.2,-254.69 409.75,-349.82 275.56,-95.15 585.5,-67.21 680.81,-44.78 95.3,22.42 95.3,22.42 95.3,22.42 0,0 -136.26,82.93 -242.81,220.31 -106.55,137.38 -177.74,257.12 -392.72,423.72 -214.98,166.61 -507.32,89.21 -550.33,81.68 -43.03,-7.51 -96.78,-31.16 -96.78,-31.16 0,0 96.76,-108.8 247.95,-225.22 151.19,-116.41 335.7,-210.53 335.7,-210.53 0,0 -238.96,82.91 -367.39,168.26 -128.44,85.35 -127.63,94.3 -127.63,94.3l8.16 -149.17z"/>
   <path class="fil3" d="M2589.22 763.54c0,0 83.79,-162 20.36,-356.65 -63.43,-194.66 -266.93,-328 -284.01,-339.36 -17.08,-11.38 -125.26,-67.52 -125.26,-67.52 0,0 36.69,93.23 35.28,204.29 -1.42,111.06 -17.41,225.54 24.09,351.67 41.51,126.12 122.46,191.54 199.59,229.77 77.12,38.21 91.3,36.8 91.3,36.8 0,0 -5.21,-125.29 -41.03,-237.63 -35.81,-112.34 -77.33,-194.55 -77.33,-194.55 0,0 79.19,113.98 109.08,204.33 29.89,90.34 47.94,168.87 47.94,168.87z"/>
  </g>
 </g>
</svg>
