<?xml version="1.0" encoding="UTF-8"?>
<!DOCTYPE svg PUBLIC "-//W3C//DTD SVG 1.1//EN" "http://www.w3.org/Graphics/SVG/1.1/DTD/svg11.dtd">
<!-- Creator: CorelDRAW 2021 (64-Bit Evaluation Version) -->
<svg xmlns="http://www.w3.org/2000/svg" xml:space="preserve" width="12.3128mm" height="17.7518mm" version="1.1" style="shape-rendering:geometricPrecision; text-rendering:geometricPrecision; image-rendering:optimizeQuality; fill-rule:evenodd; clip-rule:evenodd"
viewBox="0 0 20.69 29.82"
 xmlns:xlink="http://www.w3.org/1999/xlink"
 xmlns:xodm="http://www.corel.com/coreldraw/odm/2003">
 <defs>
  <style type="text/css">
   <![CDATA[
    .str0 {stroke:#FEFEFE;stroke-width:1.35;stroke-miterlimit:22.9256}
    .fil0 {fill:none}
    .fil1 {fill:#FEFEFE}
   ]]>
  </style>
 </defs>
 <g id="Layer_x0020_1">
  <metadata id="CorelCorpID_0Corel-Layer"/>
  <g id="_2370375731504">
   <path class="fil0 str0" d="M10.02 0.7c-0.69,0.11 -1.19,0.43 -1.79,0.64 -0.65,0.23 -1.34,0.21 -2.04,0.37 -1.47,0.34 -1.65,1.55 -2.55,2.27 -1.22,0.97 -1.82,1.13 -2.03,2.79 -0.11,0.88 -0.16,1.23 -0.47,1.95 -0.24,0.56 -0.55,1.2 -0.44,1.95 0.09,0.63 0.45,1.2 0.64,1.77 0.48,1.38 -0.06,2.41 1.33,3.5 0.5,0.39 0.91,0.67 1.31,1.1 0.93,1.01 0.93,1.79 2.8,2.02 0.86,0.11 1.24,0.16 1.95,0.47 1.96,0.85 2.03,0.42 3.73,-0.2 1.39,-0.51 2.3,0.11 3.49,-1.33 0.19,-0.23 0.35,-0.46 0.52,-0.69 0.7,-0.9 1.31,-1.1 1.91,-1.71 0.43,-0.43 0.58,-0.93 0.69,-1.73 0.29,-2.3 1.11,-2.65 0.91,-3.89 -0.1,-0.63 -0.45,-1.2 -0.64,-1.76 -0.22,-0.64 -0.22,-1.36 -0.37,-2.05 -0.31,-1.39 -1.55,-1.67 -2.28,-2.55 -0.85,-1.03 -1.03,-1.79 -2.8,-2.02 -0.85,-0.11 -1.24,-0.15 -1.95,-0.47 -0.56,-0.25 -1.21,-0.55 -1.93,-0.44zm4.91 18.77c-1.94,0.3 -1.56,0.12 -3.32,0.83 -0.31,0.13 -0.28,0.28 -0.39,0.61l-1.07 3.1c-0.16,0.46 -0.16,0.37 0.01,0.82l1.11 3.06c0.37,0.69 0.92,-0.42 1.09,-0.67 0.27,-0.4 0.54,-0.83 0.8,-1.26 0.57,-0.91 0.33,-0.81 2.81,-0.01 0.17,0.06 0.66,0.24 0.81,0.25 0.36,0.02 0.46,-0.28 0.35,-0.61 -0.34,-1.02 -0.73,-2.01 -1.11,-3.07 -0.36,-1 -0.79,-2.08 -1.09,-3.07zm-4.12 1.09c-1.83,0.06 -1.78,-0.45 -3.05,-0.77 -0.81,-0.2 -1.52,-0.1 -2.38,-0.49 -0.29,-0.13 -0.4,-0.28 -0.66,-0.4 -0.23,0.86 -1.72,5 -2.06,5.98 -1,2.92 -1.3,2.81 2.35,1.55 0.39,-0.13 0.51,-0.14 0.71,0.15 0.27,0.4 0.52,0.8 0.79,1.22 0.15,0.23 0.66,1.05 0.81,1.2 0.53,0.5 0.74,-0.5 0.88,-0.89 0.3,-0.87 2.51,-7.14 2.59,-7.56z"/>
   <path class="fil1" d="M10.34 3.02c4.04,0 7.32,3.28 7.32,7.32 0,4.04 -3.28,7.32 -7.32,7.32 -4.04,0 -7.32,-3.28 -7.32,-7.32 0,-4.04 3.28,-7.32 7.32,-7.32zm-5.6 7.96c-0.39,-3.29 2.11,-5.92 4.98,-6.23 3.3,-0.35 5.92,2.11 6.22,4.96 0.35,3.3 -2.09,5.95 -4.95,6.24 -3.36,0.34 -5.9,-2.08 -6.24,-4.97zm5.12 -6.96c-3.61,0.33 -6.11,3.32 -5.86,6.83 0.23,3.34 3.17,6.1 6.84,5.84 3.32,-0.23 6.11,-3.18 5.83,-6.84 -0.25,-3.28 -3.19,-6.15 -6.8,-5.82zm-0.47 7.5c-0.31,-0.15 -1.1,-1.43 -2.79,-1.45 -0.33,-0.01 -0.6,0.14 -0.54,0.52 0.03,0.2 1.09,1.06 1.55,1.63 0.33,0.4 0.59,0.76 0.88,1.23 0.27,0.45 0.4,1.01 1.03,1.08 1.02,0.11 1.12,-1.14 1.69,-2.52 0.43,-1.02 0.89,-1.91 1.45,-2.76 0.31,-0.46 0.56,-0.81 0.89,-1.21 0.1,-0.12 0.12,-0.16 0.24,-0.29 0.61,-0.65 -0.22,-1.76 -2.72,1.26 -0.42,0.5 -1.46,1.84 -1.7,2.52z"/>
  </g>
 </g>
</svg>
