<?xml version="1.0" encoding="UTF-8"?>
<!DOCTYPE svg PUBLIC "-//W3C//DTD SVG 1.1//EN" "http://www.w3.org/Graphics/SVG/1.1/DTD/svg11.dtd">
<!-- Creator: CorelDRAW 2021 (64-Bit Evaluation Version) -->
<svg xmlns="http://www.w3.org/2000/svg" xml:space="preserve" width="18.0062mm" height="17.7542mm" version="1.1" style="shape-rendering:geometricPrecision; text-rendering:geometricPrecision; image-rendering:optimizeQuality; fill-rule:evenodd; clip-rule:evenodd"
viewBox="0 0 47.88 47.21"
 xmlns:xlink="http://www.w3.org/1999/xlink"
 xmlns:xodm="http://www.corel.com/coreldraw/odm/2003">
 <defs>
  <style type="text/css">
   <![CDATA[
    .str3 {stroke:#FEFEFE;stroke-width:2.14;stroke-linecap:round;stroke-linejoin:round;stroke-miterlimit:22.9256}
    .str0 {stroke:#FEFEFE;stroke-width:2.14;stroke-linecap:round;stroke-linejoin:round;stroke-miterlimit:22.9256}
    .str2 {stroke:#FEFEFE;stroke-width:2.14;stroke-linecap:round;stroke-linejoin:round;stroke-miterlimit:22.9256}
    .str1 {stroke:#FEFEFE;stroke-width:2.14;stroke-linecap:round;stroke-linejoin:round;stroke-miterlimit:22.9256}
    .fil0 {fill:none}
    .fil1 {fill:#FEFEFE;fill-rule:nonzero}
   ]]>
  </style>
 </defs>
 <g id="Layer_x0020_1">
  <metadata id="CorelCorpID_0Corel-Layer"/>
  <g id="_2370371981440">
   <rect class="fil0 str0" x="1.07" y="1.07" width="45.73" height="45.06"/>
   <polygon class="fil0 str1" points="16.9,1.07 16.9,22.6 23.96,18.53 31.01,22.6 31.01,1.07 23.96,1.07 "/>
   <rect class="fil0 str2" x="5.39" y="34.09" width="10.39" height="8" rx="0.92" ry="0.92"/>
   <line class="fil0 str3" x1="19.42" y1="34.09" x2="24.15" y2= "34.09" />
   <g>
    <path class="fil1" d="M19.42 43.16c-0.6,0 -1.08,-0.48 -1.08,-1.07 0,-0.59 0.48,-1.07 1.08,-1.07l0 2.14zm10.39 0l-10.39 0 0 -2.14 10.39 0 0 2.14zm0 -2.14c0.6,0 1.08,0.48 1.08,1.07 0,0.59 -0.48,1.07 -1.08,1.07l0 -2.14z"/>
   </g>
   <g>
    <path class="fil1" d="M19.42 39.17c-0.59,0 -1.08,-0.48 -1.08,-1.07 0,-0.59 0.48,-1.07 1.08,-1.07l0 2.14zm6.99 0l-6.99 0 0 -2.14 6.99 0 0 2.14zm0 -2.14c0.59,0 1.08,0.48 1.08,1.07 0,0.59 -0.48,1.07 -1.08,1.07l0 -2.14z"/>
   </g>
  </g>
 </g>
</svg>
